<?xml version="1.0" encoding="UTF-8" standalone="no"?>
<!-- Created with Inkscape (http://www.inkscape.org/) -->

<svg
   width="210mm"
   height="297mm"
   viewBox="0 0 210 297"
   version="1.1"
   id="svg1"
   inkscape:version="1.3.2 (091e20e, 2023-11-25, custom)"
   sodipodi:docname="mary logo.svg"
   xmlns:inkscape="http://www.inkscape.org/namespaces/inkscape"
   xmlns:sodipodi="http://sodipodi.sourceforge.net/DTD/sodipodi-0.dtd"
   xmlns="http://www.w3.org/2000/svg"
   xmlns:svg="http://www.w3.org/2000/svg">
  <sodipodi:namedview
     id="namedview1"
     pagecolor="#ffffff"
     bordercolor="#000000"
     borderopacity="0.25"
     inkscape:showpageshadow="2"
     inkscape:pageopacity="0.0"
     inkscape:pagecheckerboard="0"
     inkscape:deskcolor="#d1d1d1"
     inkscape:document-units="mm"
     inkscape:zoom="0.45344416"
     inkscape:cx="396.96177"
     inkscape:cy="561.25984"
     inkscape:window-width="1360"
     inkscape:window-height="705"
     inkscape:window-x="-8"
     inkscape:window-y="-8"
     inkscape:window-maximized="1"
     inkscape:current-layer="layer1" />
  <defs
     id="defs1" />
  <g
     inkscape:label="Layer 1"
     inkscape:groupmode="layer"
     id="layer1">
    <path
       style="fill:#004455;stroke-width:2.20534"
       d="m 154.85221,278.71898 c -0.74779,-0.74778 5.78554,-6.02714 14.5185,-11.73191 17.08019,-11.15756 51.41497,-39.19249 62.19033,-50.77946 3.63881,-3.9129 12.40627,-12.15404 19.48323,-18.31365 10.23007,-8.904 13.27405,-10.55649 14.8523,-8.06287 1.0918,1.72504 2.00028,14.76753 2.01886,28.9833 l 0.0338,25.84686 -54.66108,17.70867 c -58.61728,18.99037 -56.41168,18.37329 -58.43591,16.34906 z"
       id="path25"
       transform="scale(0.26458333)" />
    <path
       style="fill:#004455;stroke-width:2.20534"
       d="m 261.74793,329.0188 c -6.15671,-0.92404 -13.62717,-12.38921 -13.63858,-20.93161 -0.009,-7.04223 4.72116,-17.05845 12.89414,-27.30133 6.74744,-8.45629 9.14526,-7.59787 9.16826,3.28223 0.009,4.47694 1.8215,15.67866 4.02674,24.89272 l 4.00952,16.75284 -5.68074,2.03519 c -3.12441,1.11936 -7.97511,1.69084 -10.77934,1.26996 z"
       id="path26"
       transform="scale(0.26458333)" />
    <path
       style="fill:#004455;stroke-width:2.20534"
       d="m 420.4423,318.00753 c -7.32942,-0.74482 -7.38304,-0.83224 -6.11326,-9.96747 0.70456,-5.06883 1.85905,-14.67428 2.56553,-21.34544 2.65308,-25.0526 2.37466,-25.08514 16.60449,1.94052 7.19562,13.66609 13.08294,25.27078 13.08294,25.78819 0,0.51741 -3.27494,0.94075 -7.27764,0.94075 -4.00269,0 -8.22041,0.76384 -9.3727,1.69743 -1.1523,0.93359 -5.42251,1.3593 -9.48936,0.94602 z"
       id="path28"
       transform="scale(0.26458333)" />
    <path
       style="fill:#004455;stroke-width:2.20534"
       d="m 413.76277,221.08566 c -0.14473,-6.42243 0.7211,-11.57806 1.94442,-11.57806 2.49363,0 2.49363,6.74026 0,16.54008 -1.439,5.65519 -1.72139,4.93457 -1.94442,-4.96202 z"
       id="path29"
       transform="scale(0.26458333)" />
    <path
       style="fill:#004455;stroke-width:2.20534"
       d=""
       id="path30"
       transform="scale(0.26458333)" />
    <path
       style="fill:#004455;stroke-width:2.20534"
       d=""
       id="path31"
       transform="scale(0.26458333)" />
    <path
       style="fill:#004455;stroke-width:2.20534"
       d=""
       id="path32"
       transform="scale(0.26458333)" />
    <path
       style="fill:#004455;stroke-width:2.20534"
       d=""
       id="path33"
       transform="scale(0.26458333)" />
    <path
       style="fill:#004455;stroke-width:2.20534"
       d=""
       id="path34"
       transform="scale(0.26458333)" />
    <path
       style="fill:#004455;stroke-width:2.20534"
       d=""
       id="path35"
       transform="scale(0.26458333)" />
    <path
       style="fill:#004455;stroke-width:2.20534"
       d=""
       id="path36"
       transform="scale(0.26458333)" />
    <path
       style="fill:#004455;stroke-width:2.20534"
       d=""
       id="path37"
       transform="scale(0.26458333)" />
    <path
       style="fill:#004455;stroke-width:2.20534"
       d=""
       id="path38"
       transform="scale(0.26458333)" />
    <path
       style="fill:#004455;stroke-width:2.20534"
       d=""
       id="path39"
       transform="scale(0.26458333)" />
    <path
       style="fill:#004455;stroke-width:2.20534"
       d=""
       id="path40"
       transform="scale(0.26458333)" />
    <path
       style="fill:#004455;stroke-width:2.20534"
       d=""
       id="path41"
       transform="scale(0.26458333)" />
    <path
       style="fill:#004455;stroke-width:2.20534"
       d=""
       id="path42"
       transform="scale(0.26458333)" />
    <path
       style="fill:#004455;stroke-width:2.20534"
       d=""
       id="path43"
       transform="scale(0.26458333)" />
    <path
       style="fill:#004455;stroke-width:2.20534"
       d=""
       id="path44"
       transform="scale(0.26458333)" />
    <path
       style="fill:#004455;stroke-width:2.20534"
       d=""
       id="path45"
       transform="scale(0.26458333)" />
    <path
       style="fill:#004455;stroke-width:2.20534"
       d=""
       id="path46"
       transform="scale(0.26458333)" />
    <path
       style="fill:#004455;stroke-width:2.20534"
       d=""
       id="path47"
       transform="scale(0.26458333)" />
    <g
       id="g54">
      <path
         id="path3"
         style="fill:#808000;stroke-width:0.264583"
         d="m 70.029297,49.21875 c -1.999486,0.655637 -3.294936,2.445988 -4.824657,3.784372 -5.6727,5.578999 -11.480293,11.071391 -18.012957,15.644685 -4.808852,3.412202 -9.880605,6.456575 -15.176058,9.051412 1.235768,-0.323958 2.369262,-0.803609 3.557003,-1.141438 11.893108,-3.898166 23.786217,-7.796333 35.679325,-11.6945 0.06604,-4.693634 0.425747,-9.42096 -0.238792,-14.06208 -0.133723,-0.562663 -0.303734,-1.48765 -0.983864,-1.582451 z m 40.310543,4.525391 c -1.53917,2.057199 -1.57079,4.842666 -1.03109,7.19921 0.24032,1.018571 0.5052,2.035027 0.89242,3.009774 0.27393,-2.793088 0.46342,-5.728699 0.36328,-8.589844 -0.0507,-0.529262 -0.0567,-1.149176 -0.22461,-1.61914 z m -26.843746,8.236328 c -2.327399,0.715893 -4.634538,1.514891 -6.956523,2.259122 -1.414883,0.463756 -2.829766,0.927512 -4.244649,1.391268 -0.02905,1.195808 -0.01494,2.392041 0.0039,3.587891 3.50328,-2.770765 7.310508,-5.135997 11.242188,-7.246094 z m 26.957026,10.535156 c -1.03509,9.407535 -2.3204,18.780024 -3.62695,28.152345 3.90952,0.39105 7.90851,0.75575 11.75176,-0.38255 2.20214,-0.563813 4.18891,-2.506408 4.14292,-4.889471 0.11405,-3.135576 -1.15556,-6.112597 -2.42176,-8.91431 -2.85574,-6.165797 -6.5107,-11.911783 -9.41628,-18.051951 -0.14323,1.361979 -0.28646,2.723958 -0.42969,4.085937 z M 71.330078,71.445312 c -2.483092,2.288586 -4.850004,4.859004 -5.738281,8.207032 -0.775056,2.7642 0.404208,5.735525 2.402344,7.683594 2.272992,2.396137 5.190345,3.97334 8.160156,5.34375 C 76.351098,92.339304 75.85396,91.97938 75.836592,91.615347 73.265221,85.193358 71.769054,78.327475 71.330078,71.445312 Z m 7.488281,24.363282 c 4.952428,10.167266 12.193743,19.074096 20.952119,26.192966 0.821162,0.67788 1.670112,1.32111 2.532252,1.94571 1.15271,-7.44437 2.26091,-14.89556 3.32227,-22.35352 -8.576636,-1.2502 -17.074621,-3.177928 -25.26074,-6.045637 -0.681952,-0.244525 -1.356762,-0.507547 -2.034182,-0.76491 0.162761,0.341797 0.325521,0.683594 0.488281,1.025391 z" />
      <path
         id="text1"
         style="font-size:19.8215px;fill:#0b2228;stroke-width:0.371654"
         inkscape:transform-center-x="-1.225174"
         inkscape:transform-center-y="-1.8095343"
         d="m 20.033626,74.798598 5.228955,27.582742 6.982806,-0.4482 c -1.008211,-5.318309 -2.016419,-10.636616 -3.024629,-15.954924 1.848508,3.121281 3.698445,6.241728 5.546056,9.363534 l 5.04036,-0.323523 c 0.633792,-3.281077 1.270367,-6.561124 1.905233,-9.841804 1.008211,5.318307 2.599917,4.218147 3.608125,9.536449 l 3.811431,7.116108 2.251941,-22.882838 -12.861801,-5.892536 C 37.600316,77.419862 36.674658,81.78461 35.75138,86.150286 33.207837,82.00732 31.832057,74.946394 29.28803,70.803727 l -9.358969,3.443298 c -9.301133,19.439261 0.696183,14.158953 0.688055,13.972005 z m 77.009792,7.024099 c 4.441442,3.109014 -1.539614,10.733205 -2.310156,16.099574 1.543712,-0.09908 3.087421,-0.19817 4.631133,-0.297256 0.120792,-1.032408 0.246325,-2.063446 0.369076,-3.095286 1.449899,-0.09306 2.899789,-0.186127 4.349669,-0.279189 0.50576,0.991475 1.01341,1.982062 1.51782,2.974173 l 4.72372,-0.303198 c -2.8249,-5.257224 -6.23396,-15.18208 -9.0575,-20.43999 l -4.171689,4.973194 c -0.01736,0.122659 -5.988528,-3.787543 -5.887041,-3.716501 z m 80.848252,-2.150715 c -2.09497,0.225013 -3.98284,1.69798 -4.31339,3.991319 -0.37503,2.573513 0.45536,5.760351 2.62486,7.616494 2.11475,1.746379 3.7255,7.621616 5.86213,6.814465 2.06911,-0.751326 4.34224,-8.992901 4.00217,-11.436303 -0.2013,-2.474056 -1.52666,-5.205598 -3.81587,-6.348571 -1.40478,-0.736509 -2.95035,-0.818761 -4.3599,-0.637404 z M 57.422752,87.42298 c -1.32733,0.148251 -2.596872,0.507971 -3.84174,0.911996 0.235748,1.243584 0.471505,2.487169 0.707253,3.730753 1.352134,0.07865 2.307731,-1.008094 3.64119,-1.044986 0.761409,0.0085 1.738194,-0.190471 2.383889,0.507871 -1.981682,0.343741 -4.293056,0.490971 -5.58186,2.189239 -1.319618,1.829136 -0.300166,5.21035 1.932804,6.303887 1.796136,0.91365 3.898374,0.55626 5.192266,-0.669064 -0.08643,0.870414 0.569589,0.649764 1.103181,0.609021 L 66.263189,99.74966 C 65.672573,96.775946 65.187045,93.790085 64.531395,90.823824 64.107416,89.07516 62.521162,87.761566 60.932212,87.529181 59.749026,87.278302 58.570223,87.31724 57.422752,87.42298 Z m 80.756868,-5.183487 c -1.32667,0.148411 -2.59583,0.507339 -3.83989,0.911878 0.23577,1.243584 0.47145,2.487169 0.70723,3.730752 1.35134,0.07818 2.30643,-1.008237 3.63934,-1.044866 0.76072,0.01053 1.74022,-0.194421 2.38389,0.507871 -1.98215,0.343286 -4.29194,0.492437 -5.58186,2.189239 -1.31903,1.829695 -0.30006,5.21015 1.9328,6.30389 1.79617,0.913572 3.89847,0.556572 5.19227,-0.669068 -0.0864,0.870417 0.56959,0.649764 1.10318,0.609021 l 3.30345,-0.212036 c -0.59023,-2.973089 -1.07648,-5.958149 -1.73101,-8.92389 -0.42186,-1.748658 -2.01004,-3.063209 -3.59811,-3.296522 -1.18389,-0.250736 -2.3632,-0.212268 -3.51131,-0.106269 z m -22.9144,1.493452 c -0.88178,0.139025 -1.65158,0.592849 -2.29276,1.18339 0.0858,-0.896426 -0.54287,-0.742816 -1.11514,-0.672116 -1.11043,0.07127 -2.22083,0.142547 -3.33123,0.213819 0.78534,4.142567 1.57064,8.285135 2.35596,12.427702 1.43569,-0.09215 2.87138,-0.184304 4.30708,-0.276456 -0.51433,-2.752458 -1.06197,-5.523076 -1.55539,-8.264136 0.63598,-0.464132 1.61006,-0.826112 2.40899,-0.26381 0.71245,1.292353 0.7434,2.792923 1.077,4.178369 0.26378,1.391621 0.52766,2.78324 0.79144,4.174861 1.44186,-0.09255 2.88374,-0.185097 4.32561,-0.277644 -0.59921,-2.966139 -1.05389,-5.948544 -1.74363,-8.904608 -0.45921,-1.798981 -2.01318,-3.394932 -3.73121,-3.54046 -0.50751,-0.07608 -1.00977,-0.04936 -1.49669,0.02109 z m 38.17304,-2.450188 c -0.88333,0.137566 -1.65102,0.59518 -2.29462,1.18351 0.0858,-0.896427 -0.54285,-0.742817 -1.11514,-0.672116 -1.11041,0.07127 -2.22081,0.142546 -3.33124,0.213819 0.78535,4.142567 1.57066,8.285134 2.35597,12.427702 1.43571,-0.09215 2.8714,-0.184304 4.30709,-0.276456 -0.51434,-2.752459 -1.06197,-5.523076 -1.55539,-8.264137 0.63748,-0.4614 1.60857,-0.82619 2.40861,-0.265845 0.71264,1.293122 0.74357,2.794484 1.07738,4.180404 0.26378,1.391621 0.52766,2.783241 0.79144,4.174861 1.44186,-0.09255 2.88372,-0.185096 4.32559,-0.277644 -0.59921,-2.966138 -1.05389,-5.948544 -1.74361,-8.904607 -0.45828,-1.799382 -2.01318,-3.395039 -3.73123,-3.54046 -0.50691,-0.07676 -1.00851,-0.04911 -1.49483,0.02097 z m 10.54551,-0.676877 c -2.06528,0.293574 -3.57455,2.144465 -3.67076,4.404221 -0.0276,2.153795 0.52525,4.56905 1.98853,6.366792 1.78189,2.027898 4.73817,2.281698 6.56616,1.020358 0.19797,0.172488 -0.0881,0.985923 -0.48081,1.083818 -1.41013,0.687247 -3.13989,0.265393 -4.70297,-0.141054 -0.618,-0.03922 -1.13674,0.0066 -0.76142,0.818108 l 0.58365,3.078638 c 2.72324,0.431822 5.64856,0.658781 7.97439,-0.635455 1.64426,-0.930061 2.09615,-3.184235 1.69132,-5.216923 -0.66548,-3.648763 -1.37957,-7.29534 -2.06345,-10.943273 -1.3641,0.08756 -2.72819,0.175112 -4.09228,0.262668 0.0531,0.522546 -0.66444,-0.108199 -0.96467,-0.04027 -0.69695,-0.155555 -1.39831,-0.156934 -2.06767,-0.05763 z m -91.229218,6.127601 c -0.886149,0.172937 -1.682333,0.622536 -2.301022,1.268384 -0.113992,-0.575193 -0.07564,-1.374255 -0.802663,-1.048569 -1.23682,0.07939 -2.47364,0.158774 -3.71046,0.23816 0.785316,4.142567 1.570642,8.285135 2.355963,12.427702 1.435693,-0.09215 2.28789,5.650662 3.723584,5.558512 -0.488346,-2.57604 -0.393205,-10.987056 -0.881552,-13.563101 1.127017,-0.548566 2.467648,-0.421151 3.733109,-0.379701 0.78203,0.158127 0.100681,-0.937131 0.144401,-1.411367 -0.06968,-0.507936 -0.475327,-1.934985 0.06159,-0.783461 l 5.124584,9.168065 c -0.313644,1.637974 -0.626703,3.276165 -0.940814,4.913955 1.557907,-0.1 3.699313,4.46799 5.257221,4.368 0.998183,-5.65877 1.408988,-15.986886 2.407369,-21.645583 -1.498652,0.09619 -2.997304,0.192386 -4.495956,0.288579 -0.270372,2.127976 -0.547199,4.254021 -0.820093,6.381242 -1.097225,-2.039238 -2.196842,-4.07726 -3.29256,-6.117266 -1.851075,0.129767 -3.709736,0.230065 -5.562698,0.336449 z m 48.052268,-2.301464 c 2.0096,3.594285 4.01919,7.188569 6.02878,10.782854 -0.31364,1.637974 -0.62671,7.360649 -0.94082,8.998439 1.55729,-0.1 3.11459,-4.284393 4.67188,-4.38435 0.99818,-5.658762 1.99248,-11.3189 2.99087,-16.977598 -1.49866,0.09619 -2.99731,0.192386 -4.49597,0.288579 -0.27036,2.127976 -0.54719,4.254021 -0.82008,6.381242 -1.09723,-2.039238 -2.19684,-4.07726 -3.29256,-6.117266 -1.51779,0.09742 -3.03558,0.194842 -4.55336,0.292264 0.13705,0.245278 0.27417,0.490558 0.41126,0.735836 z m -18.6529,6.038478 c -0.65181,0.04184 -1.30361,0.08367 -1.95541,0.125511 0.12783,-1.065719 0.25567,-2.131438 0.3835,-3.197159 z m 77.27966,-7.232579 c 1.19207,-0.05168 1.81178,1.430951 2.01038,2.493832 0.24219,1.131377 0.53993,2.761532 -0.5535,3.263318 -0.8197,0.364232 -1.99539,-0.07167 -2.34568,-1.131176 -0.49135,-1.293259 -0.86243,-2.818927 -0.39018,-4.026799 0.23717,-0.48839 0.7687,-0.611859 1.27898,-0.599175 z m -12.59627,0.981556 c 0.70884,-0.165306 0.76488,0.512546 0.84172,1.118165 0.21289,1.122822 0.42567,2.245644 0.63856,3.368465 -0.76431,0.573241 -2.19227,0.832422 -2.91835,-0.266027 -0.56439,-1.194875 -0.94219,-2.843327 -0.10812,-3.775266 0.40397,-0.376858 0.98994,-0.455813 1.54617,-0.445337 z M 61.267757,96.246768 c -0.609402,0.593162 -1.666754,0.908242 -2.514927,0.367433 -0.455377,-0.601998 -0.139561,-1.374434 0.485177,-1.454666 0.566811,-0.178359 1.160554,-0.281287 1.748855,-0.394485 0.09359,0.493906 0.187268,0.987812 0.280897,1.481718 z m 80.757253,-5.181451 c -0.60945,0.584953 -1.67126,0.914555 -2.51755,0.363481 -0.44921,-0.599915 -0.13966,-1.377648 0.48949,-1.45139 0.5648,-0.182056 1.15943,-0.281582 1.74677,-0.395844 0.0942,0.494585 0.18752,0.989169 0.28133,1.483753 z"
         sodipodi:nodetypes="ccccccccccccccscsccccccccssccccccccccccccccccccscccccccccccsssccccccccccccsssccccccccccccsssccccccccccccsssccccccccccccccccssccccccccccccccccccccsccccssscccsssccccs" />
      <path
         style="fill:#0b2228;stroke-width:2.20534;fill-opacity:1"
         d="m 362.01151,445.34474 c -11.61295,-10.99047 -25.42285,-25.7141 -30.68866,-32.71918 -9.42712,-12.54084 -9.5544,-12.94358 -8.28543,-26.21613 0.70883,-7.41379 1.93779,-14.12864 2.73104,-14.92188 0.79324,-0.79324 12.17422,1.09817 25.29107,4.20314 13.11685,3.10497 29.15487,6.32454 35.64005,7.15461 11.25628,1.44074 11.73957,1.77019 10.65218,7.26151 -0.62648,3.16376 -3.4098,21.38266 -6.18516,40.48645 -2.77535,19.10378 -5.71986,34.73415 -6.54336,34.73415 -0.8235,0 -10.99878,-8.9922 -22.61173,-19.98267 z"
         id="path27"
         transform="scale(0.26458333)" />
      <path
         style="fill:#004455;stroke-width:2.20534"
         d="m 410.74517,379.94479 c -6.10155,-0.92431 -7.4801,-3.80388 -4.25351,-8.88488 0.959,-1.51017 7.99316,-3.39897 15.63145,-4.19733 l 13.8878,-1.45156 -1.38961,-9.03474 c -0.76428,-4.9691 -1.96965,-12.26004 -2.67859,-16.20209 -1.00612,-5.59449 -0.52784,-7.16737 2.17946,-7.16737 3.45052,0 6.07896,7.06113 9.29031,24.95781 1.50377,8.38043 1.54834,8.41133 10.05869,6.97352 9.76857,-1.65039 10.77876,0.48985 3.47143,7.35472 -7.46837,7.01617 -27.97372,10.41258 -46.19743,7.65192 z"
         id="path48"
         transform="scale(0.26458333)" />
      <path
         style="fill:#004455;stroke-width:2.20534"
         d="m 411.36807,351.96907 c -1.65298,-5.00858 -1.83728,-9.11274 -0.51527,-11.47503 1.59084,-2.84267 2.41309,-1.31039 3.62168,6.74908 1.92217,12.81793 0.35237,15.20616 -3.10641,4.72595 z"
         id="path49"
         transform="scale(0.26458333)" />
    </g>
    <path
       style="fill:#004455;stroke-width:2.20534"
       d=""
       id="path50"
       transform="scale(0.26458333)" />
    <path
       style="fill:#004455;stroke-width:2.20534"
       d="m 274.56523,253.69004 c 0,-4.5906 4.48969,-7.27313 17.18867,-10.27001 5.3055,-1.25207 4.98893,-0.6902 -2.85394,5.06543 -13.75853,10.09692 -14.33473,10.30613 -14.33473,5.20458 z"
       id="path51"
       transform="scale(0.26458333)" />
    <path
       style="fill:#004455;stroke-width:2.20534"
       d=""
       id="path52"
       transform="scale(0.26458333)" />
    <path
       style="fill:#004455;stroke-width:2.20534"
       d=""
       id="path53"
       transform="scale(0.26458333)" />
    <path
       style="fill:#008066;stroke-width:2.20534"
       d=""
       id="path54"
       transform="scale(0.26458333)" />
  </g>
</svg>
